<?xml version="1.0" encoding="UTF-8" standalone="no"?>
<!-- Generator: Adobe Illustrator 16.0.0, SVG Export Plug-In . SVG Version: 6.00 Build 0)  -->

<svg
   xmlns:dc="http://purl.org/dc/elements/1.1/"
   xmlns:cc="http://creativecommons.org/ns#"
   xmlns:rdf="http://www.w3.org/1999/02/22-rdf-syntax-ns#"
   xmlns:svg="http://www.w3.org/2000/svg"
   xmlns="http://www.w3.org/2000/svg"
   xmlns:sodipodi="http://sodipodi.sourceforge.net/DTD/sodipodi-0.dtd"
   xmlns:inkscape="http://www.inkscape.org/namespaces/inkscape"
   version="1.1"
   id="svg644"
   sodipodi:version="0.32"
   sodipodi:docname="walker.svg"
   inkscape:version="0.48.3.1 r9886"
   x="0px"
   y="0px"
   width="579.997px"
   height="579.997px"
   viewBox="0 0 579.997 579.997"
   enable-background="new 0 0 579.997 579.997"
   xml:space="preserve"><metadata
   id="metadata8"><rdf:RDF><cc:Work
       rdf:about=""><dc:format>image/svg+xml</dc:format><dc:type
         rdf:resource="http://purl.org/dc/dcmitype/StillImage" /><dc:title></dc:title></cc:Work></rdf:RDF></metadata><defs
   id="defs6" />
<sodipodi:namedview
   inkscape:cy="166.22907"
   inkscape:cx="-82.607714"
   borderopacity="1.0"
   pagecolor="#ffffff"
   bordercolor="#666666"
   inkscape:zoom="1"
   id="base"
   inkscape:current-layer="svg644"
   inkscape:window-y="24"
   inkscape:window-x="49"
   inkscape:pageshadow="2"
   inkscape:window-width="1871"
   inkscape:pageopacity="0.0"
   inkscape:window-height="1056"
   showgrid="false"
   inkscape:window-maximized="1">
	</sodipodi:namedview>
<path
   fill="param(fill) #000"
   stroke="param(outline) #FFF"
   stroke-width="param(outline-width) 0"
   d="M402.9,318.249l62.95-20.439L401.086,98.358l-70.397,22.857  l7.519,23.154c-5.28-4.731-11.488-10.002-19.134-17.161l-8.139,2.335c10.291-9.652,16.694-23.146,16.694-38.09  c0-29.34-24.645-53.123-55.041-53.123c-30.397,0-55.039,23.783-55.039,53.123c0,25.845,19.124,47.369,44.457,52.132l-11.376,3.265  c-24.238,33.205-39.924,77.633-64.163,95.404c-19.012,12.158-27.364,8.887-52.08,11.225l-0.111-44.896h-19.82l-0.309,330.42  l19.498,0.465l0.631-241.096c38.498-0.934,52.191-3.271,76.431-7.012c23.29-7.484,36.598-21.98,55.609-35.076l9.816,67.461  c0,0-94.783,214.506-83.961,215.939c25.754,3.42,58.128,1.375,58.128,1.375s67.089-172.41,89.607-172.094  c21.149,0.316,58.031,170.621,58.031,170.621h56.104l-47.825-206.811C405.05,327.667,403.947,322.834,402.9,318.249z"
   id="path4"
   style="fill:#ffffff" />
</svg>