<?xml version="1.0" encoding="UTF-8" standalone="no"?>
<!-- Created with Inkscape (http://www.inkscape.org/) -->

<svg
   xmlns:dc="http://purl.org/dc/elements/1.1/"
   xmlns:cc="http://creativecommons.org/ns#"
   xmlns:rdf="http://www.w3.org/1999/02/22-rdf-syntax-ns#"
   xmlns:svg="http://www.w3.org/2000/svg"
   xmlns="http://www.w3.org/2000/svg"
   xmlns:sodipodi="http://sodipodi.sourceforge.net/DTD/sodipodi-0.dtd"
   xmlns:inkscape="http://www.inkscape.org/namespaces/inkscape"
   version="1.1"
   width="100%"
   height="100%"
   viewBox="0 0 26 26"
   id="Capa_1"
   xml:space="preserve"
   inkscape:version="0.48.3.1 r9886"
   sodipodi:docname="40w.svg"><sodipodi:namedview
   pagecolor="#ffffff"
   bordercolor="#666666"
   borderopacity="1"
   objecttolerance="10"
   gridtolerance="10"
   guidetolerance="10"
   inkscape:pageopacity="0"
   inkscape:pageshadow="2"
   inkscape:window-width="1869"
   inkscape:window-height="1056"
   id="namedview24"
   showgrid="false"
   inkscape:zoom="9.0769231"
   inkscape:cx="-1.4322034"
   inkscape:cy="13"
   inkscape:window-x="51"
   inkscape:window-y="24"
   inkscape:window-maximized="1"
   inkscape:current-layer="Capa_1" /><metadata
   id="metadata45"><rdf:RDF><cc:Work
       rdf:about=""><dc:format>image/svg+xml</dc:format><dc:type
         rdf:resource="http://purl.org/dc/dcmitype/StillImage" /><dc:title></dc:title></cc:Work></rdf:RDF></metadata><defs
   id="defs43" /><g
   id="g11" /><g
   id="g13" /><g
   id="g15" /><g
   id="g17" /><g
   id="g19" /><g
   id="g21" /><g
   id="g23" /><g
   id="g25" /><g
   id="g27" /><g
   id="g29" /><g
   id="g31" /><g
   id="g33" /><g
   id="g35" /><g
   id="g37" /><g
   id="g39" /><text
   x="5.3392711"
   y="18.453663"
   id="text3025"
   xml:space="preserve"
   style="font-size:34.97618865999999826px;font-style:normal;font-weight:normal;line-height:125%;letter-spacing:0px;word-spacing:0px;fill:#ffffff;fill-opacity:1;stroke:none;font-family:Sans"
   sodipodi:linespacing="125%"><tspan
     x="5.3392711"
     y="18.453663"
     id="tspan3027"
     style="font-size:15.73928642000000089px;font-style:normal;font-variant:normal;font-weight:500;font-stretch:normal;fill:#ffffff;font-family:Ubuntu;-inkscape-font-specification:Ubuntu Medium">41</tspan></text>

<g
   transform="matrix(0.97734114,0,0,0.96548749,0.29456518,0.44866263)"
   id="g5"
   style="fill:#ffffff"><path
     d="M 21.125,2 C 22.71,2 24,3.29 24,4.875 v 16.25 C 24,22.71 22.71,24 21.125,24 H 4.875 C 3.29,24 2,22.71 2,21.125 V 4.875 C 2,3.29 3.29,2 4.875,2 h 16.25 m 0,-2 H 4.875 C 2.182,0 0,2.182 0,4.875 v 16.25 C 0,23.818 2.182,26 4.875,26 h 16.25 C 23.818,26 26,23.818 26,21.125 V 4.875 C 26,2.182 23.818,0 21.125,0 l 0,0 z"
     id="path7"
     style="fill:#ffffff" /></g></svg>